<svg width="21" height="21" viewBox="0 0 21 21" fill="none" xmlns="http://www.w3.org/2000/svg">
<path fill-rule="evenodd" clip-rule="evenodd" d="M21 10.5C21 12.9305 20.1742 15.1681 18.7879 16.9476C16.8665 19.4138 13.8685 21 10.5 21C7.49073 21 4.77713 19.7341 2.8627 17.7057C1.08795 15.8253 0 13.2897 0 10.5C0 4.70101 4.70101 0 10.5 0C16.299 0 21 4.70101 21 10.5ZM18.3937 16.0087C17.0365 13.2632 14.2075 11.375 10.9375 11.375C7.38725 11.375 4.35684 13.6007 3.16543 16.7329C4.9309 18.8083 7.56169 20.125 10.5 20.125C13.767 20.125 16.6538 18.4973 18.3937 16.0087ZM10.5 10.5C12.433 10.5 14 8.933 14 7C14 5.067 12.433 3.5 10.5 3.5C8.567 3.5 7 5.067 7 7C7 8.933 8.567 10.5 10.5 10.5Z" fill="black"/>
</svg>
